<svg width="120" height="80" viewBox="0 0 120 80" fill="none" xmlns="http://www.w3.org/2000/svg">
<rect x="0.5" y="0.5" width="119" height="79" rx="7.5" fill="#151515"/>
<rect x="0.5" y="0.5" width="119" height="79" rx="7.5" stroke="#CCCCCC"/>
<path d="M73.6046 36.8677C72.03 35.4451 70.1288 34.7496 67.9311 34.7496C65.7634 34.7496 63.8622 35.446 62.2867 36.8677C60.7121 38.2594 59.9116 40.1966 59.9116 42.6782C59.9116 45.1599 60.7121 47.0953 62.2867 48.5179C63.8613 49.9096 65.7634 50.6059 67.9311 50.6059C70.1288 50.6059 72.03 49.9096 73.6046 48.5179C75.2092 47.0953 76.0098 45.159 76.0098 42.6782C76.0098 40.1975 75.2083 38.2594 73.6046 36.8677ZM64.9619 45.8544C64.1314 45.0381 63.713 43.9782 63.713 42.6774C63.713 41.3765 64.1279 40.3175 64.9619 39.5303C65.3487 39.1377 65.8113 38.828 66.3216 38.62C66.8319 38.412 67.3792 38.31 67.9302 38.3203C68.4858 38.3099 69.0378 38.4117 69.5531 38.6196C70.0685 38.8275 70.5366 39.1373 70.9294 39.5303C71.789 40.3175 72.2074 41.3756 72.2074 42.6774C72.2074 43.9791 71.7926 45.0372 70.9294 45.8544C70.0988 46.6408 69.0882 47.0344 67.9302 47.0344C67.3821 47.0431 66.8376 46.9433 66.3282 46.7408C65.8188 46.5383 65.3545 46.2371 64.9619 45.8544ZM81.6268 50.1815V29.4174H77.8845V50.1815H81.6268ZM93.7055 35.1733V43.4584C93.7055 45.4547 92.6464 46.7784 90.6305 46.7784C88.5801 46.7784 87.5492 45.4564 87.5492 43.4584V35.1733H83.7998V44.0938C83.7998 47.5498 85.9384 50.6051 90.6305 50.6051H90.6596C95.3225 50.6051 97.4576 47.4818 97.4576 44.0938V35.1733H93.7055ZM55.9291 35.1733L52.1868 45.3399L48.4445 35.1733H44.4647L50.4366 50.1823H53.9424L59.9133 35.1733H55.9291ZM44.4824 42.2537C44.4824 40.0757 43.8001 38.2903 42.4629 36.8677C41.1257 35.4451 39.4055 34.7496 37.296 34.7496C35.1283 34.7496 33.2854 35.5068 31.7708 36.9886C30.2845 38.4721 29.5439 40.3475 29.5439 42.6774C29.5439 45.0072 30.2862 46.9144 31.7417 48.3961C33.228 49.8796 35.01 50.6051 37.1186 50.6051C40.3579 50.6051 42.6439 49.1524 44.0375 46.2172L41.2467 44.5827C40.3279 46.4281 38.9889 47.3362 37.1778 47.3362C34.9509 47.3362 33.3763 45.8836 33.138 43.5846H44.4815V42.2529L44.4824 42.2537ZM37.1751 37.654C39.2837 37.654 40.6809 38.864 41.0366 40.8011H33.1362C33.702 39.0158 35.2448 37.654 37.176 37.654H37.1751ZM29.5431 50.1815L24.5218 41.2256C27.6984 40.0457 29.273 37.9885 29.273 34.9923C29.2765 31.3307 26.423 29 21.8792 29H13V50.1815H16.9206V41.5883H20.2481L25.0584 50.1823L29.5431 50.1815ZM21.8792 32.5098C24.1961 32.5098 25.355 33.4479 25.355 35.2933C25.355 37.1386 24.1952 38.0768 21.8792 38.0768H16.9206V32.5098H21.8792ZM103.802 50.6051C101.393 50.6051 99.4399 48.6141 99.4399 46.1571V31.1181H103.182V35.1785H106.391V38.2647H103.182V45.9118C103.182 46.6319 103.755 47.2153 104.463 47.2153H106.391V50.6051H103.802Z" fill="white"/>
</svg>
