<svg width="120" height="80" viewBox="0 0 120 80" fill="none" xmlns="http://www.w3.org/2000/svg">
<rect x="0.5" y="0.5" width="119" height="79" rx="7.5" fill="#6461FC"/>
<rect x="0.5" y="0.5" width="119" height="79" rx="7.5" stroke="#CCCCCC"/>
<path d="M76.6215 29.4143C75.7754 29.4094 74.9367 29.5716 74.1535 29.8915C73.3703 30.2114 72.6579 30.6828 72.0572 31.2786L71.7572 29.8H66.6357V57.4857L72.4643 56.2214V49.5143C73.6236 50.4851 75.088 51.0162 76.6 51.0143C80.7572 51.0143 84.5715 47.6071 84.5715 40.0643C84.5715 33.1643 80.7143 29.4143 76.6215 29.4143ZM75.2286 45.7643C74.7174 45.7937 74.206 45.709 73.7316 45.5163C73.2572 45.3236 72.8316 45.0276 72.4858 44.65V35.8429C72.833 35.4514 73.2634 35.1424 73.7453 34.9385C74.2273 34.7346 74.7487 34.6409 75.2715 34.6643C77.4143 34.6643 78.8715 37.0857 78.8715 40.1929C78.8715 43.3 77.3929 45.7643 75.2286 45.7643Z" fill="white"/>
<path d="M95.3286 29.4143C89.7143 29.4143 86.3072 34.2571 86.3072 40.3643C86.3072 47.5857 90.3358 51.25 96.0786 51.25C98.32 51.2866 100.533 50.748 102.507 49.6857V44.8643C100.715 45.7688 98.7292 46.2247 96.7215 46.1929C94.4072 46.1929 92.4358 45.3571 92.1358 42.55H103.664C103.664 42.2286 103.664 40.9643 103.664 40.4071C103.857 34.2571 100.943 29.4143 95.3286 29.4143ZM92.1786 38.1357C92.1786 35.4357 93.8286 34.3 95.2858 34.3C96.7429 34.3 98.2858 35.4357 98.2858 38.1357H92.1786Z" fill="white"/>
<path d="M50.9072 31.4071L50.5429 29.65H45.5715V50.4571H51.3143V36.3571C51.833 35.7274 52.5315 35.2711 53.3165 35.049C54.1014 34.8269 54.9355 34.8497 55.7072 35.1143V29.65C54.8305 29.3066 53.8585 29.2957 52.9743 29.6193C52.0902 29.943 51.3549 30.5789 50.9072 31.4071Z" fill="white"/>
<path d="M21.8929 35.9071C21.8929 34.9643 22.6643 34.6 23.8857 34.6C25.91 34.6436 27.8942 35.1727 29.6714 36.1429V30.5071C27.834 29.7642 25.8675 29.3928 23.8857 29.4143C19.15 29.4143 16 31.9429 16 36.1857C16 42.8286 24.8714 41.7571 24.8714 44.6071C24.8714 45.7214 23.9286 46.0857 22.7286 46.0857C20.4646 45.9534 18.263 45.2929 16.3 44.1571V49.9214C18.3231 50.8238 20.5133 51.291 22.7286 51.2929C27.5714 51.2929 30.9143 48.8286 30.9143 44.5214C30.8071 37.3214 21.8929 38.6071 21.8929 35.9071Z" fill="white"/>
<path d="M38.65 24.7214L32.9714 25.9643V45.1C32.9422 45.9064 33.0776 46.7104 33.3696 47.4627C33.6615 48.215 34.1038 48.8999 34.6694 49.4755C35.2349 50.0511 35.9119 50.5053 36.659 50.8104C37.4061 51.1155 38.2075 51.2651 39.0143 51.25C40.4221 51.3129 41.8247 51.0412 43.1072 50.4571V45.6357C42.3572 45.9571 38.6929 47.05 38.6929 43.4929V34.9214H43.1072V29.9071H38.6929L38.65 24.7214Z" fill="white"/>
<path d="M57.8714 27.85L63.7214 26.6286V22L57.8714 23.2214V27.85Z" fill="white"/>
<path d="M63.7214 29.8H57.8714V50.4571H63.7214V29.8Z" fill="white"/>
</svg>
